<?xml version="1.0" encoding="UTF-8"?>
<svg width="1200pt" height="1200pt" version="1.1" viewBox="0 0 1200 1200" xmlns="http://www.w3.org/2000/svg">
 <g fill="#ff0053">
  <path d="m690 603.6c0 52.355-42.445 94.797-94.801 94.797s-94.801-42.441-94.801-94.797c0-52.359 42.445-94.801 94.801-94.801s94.801 42.441 94.801 94.801"/>
  <path d="m595.2 16.801c-318 0-577.2 259.2-577.2 577.2s259.2 577.2 577.2 577.2 577.2-259.2 577.2-577.2-259.2-577.2-577.2-577.2zm0 1080c-277.2 0-502.8-225.6-502.8-502.8s225.6-502.8 502.8-502.8 502.8 225.6 502.8 502.8-225.6 502.8-502.8 502.8z"/>
  <path d="m704.4 718.8c-28.801 26.398-67.199 42-109.2 42-43.199 0-82.801-16.801-112.8-44.398l-135.6 247.2s226.8 166.8 500.4 0z"/>
  <path d="m440.4 631.2c-6-38.398 1.1992-79.199 24-115.2 22.801-37.199 58.801-61.199 98.398-70.801l-136.8-247.2s-261.6 102-267.6 422.4z"/>
  <path d="m756 631.2c6-38.398-1.1992-79.199-24-115.2-22.801-37.199-58.801-61.199-98.398-70.801l136.8-247.2s261.6 102 267.6 422.4z"/>
 </g>
</svg>
